<svg xmlns="http://www.w3.org/2000/svg" width="32" height="32" viewBox="0 0 32 32" version="1.1"><path d="M 15 8.500 C 15 11.525, 14.832 14, 14.626 14 C 14.420 14, 12.314 13.316, 9.945 12.481 C 4.073 10.409, 2.683 12.225, 8.454 14.429 C 10.954 15.384, 13 16.610, 13 17.153 C 13 17.695, 11.648 20.105, 9.995 22.508 C 5.984 28.337, 7.956 29.281, 12.097 23.514 C 13.880 21.031, 15.636 19, 16 19 C 16.364 19, 18.120 21.031, 19.903 23.514 C 21.686 25.997, 23.587 27.755, 24.127 27.422 C 25.043 26.855, 24.323 25.352, 20.347 19.527 C 18.398 16.674, 18.542 16.446, 23.500 14.553 C 25.975 13.608, 28 12.422, 28 11.917 C 28 10.656, 26.934 10.759, 22 12.500 C 19.662 13.325, 17.580 14, 17.374 14 C 17.168 14, 17 11.525, 17 8.500 C 17 5.475, 16.550 3, 16 3 C 15.450 3, 15 5.475, 15 8.500" stroke="none" fill="#e8e952" fill-rule="evenodd"/><path d="M 0 16.025 L 0 32.050 16.250 31.775 L 32.500 31.500 32.775 15.750 L 33.051 0 16.525 0 L 0 0 0 16.025 M 0.405 16.500 C 0.406 25.300, 0.559 28.766, 0.745 24.203 C 0.930 19.639, 0.929 12.439, 0.742 8.203 C 0.555 3.966, 0.404 7.700, 0.405 16.500 M 15 8.500 C 15 11.525, 14.832 14, 14.626 14 C 14.420 14, 12.314 13.316, 9.945 12.481 C 4.073 10.409, 2.683 12.225, 8.454 14.429 C 10.954 15.384, 13 16.610, 13 17.153 C 13 17.695, 11.648 20.105, 9.995 22.508 C 5.984 28.337, 7.956 29.281, 12.097 23.514 C 13.880 21.031, 15.636 19, 16 19 C 16.364 19, 18.120 21.031, 19.903 23.514 C 21.686 25.997, 23.587 27.755, 24.127 27.422 C 25.043 26.855, 24.323 25.352, 20.347 19.527 C 18.398 16.674, 18.542 16.446, 23.500 14.553 C 25.975 13.608, 28 12.422, 28 11.917 C 28 10.656, 26.934 10.759, 22 12.500 C 19.662 13.325, 17.580 14, 17.374 14 C 17.168 14, 17 11.525, 17 8.500 C 17 5.475, 16.550 3, 16 3 C 15.450 3, 15 5.475, 15 8.500" stroke="none" fill="#0b0b24" fill-rule="evenodd"/></svg>